<?xml version="1.0" encoding="UTF-8" standalone="no"?>
<!DOCTYPE svg PUBLIC "-//W3C//DTD SVG 1.1//EN" "http://www.w3.org/Graphics/SVG/1.1/DTD/svg11.dtd">
<!-- Generiert durch Microsoft Visio, SVG Export Beobachter als Baustein.svg Page-1 -->
<svg xmlns="http://www.w3.org/2000/svg" xmlns:xlink="http://www.w3.org/1999/xlink" xmlns:ev="http://www.w3.org/2001/xml-events"
		xmlns:v="http://schemas.microsoft.com/visio/2003/SVGExtensions/" width="4.52381in" height="2.85497in"
		viewBox="0 0 325.715 205.558" xml:space="preserve" color-interpolation-filters="sRGB" class="st9">
	<v:documentProperties v:langID="1031" v:metric="true" v:viewMarkup="false">
		<v:userDefs>
			<v:ud v:nameU="msvNoAutoConnect" v:val="VT0(1):26"/>
		</v:userDefs>
	</v:documentProperties>

	<style type="text/css">
	<![CDATA[
		.st1 {visibility:visible}
		.st2 {fill:#5b9bd5;fill-opacity:0.22;filter:url(#filter_2);stroke:#5b9bd5;stroke-opacity:0.22}
		.st3 {fill:#5b9bd5;stroke:#c7c8c8;stroke-width:0.25}
		.st4 {fill:#feffff;font-family:Calibri;font-size:0.833336em}
		.st5 {fill:none;stroke:none;stroke-width:0.25}
		.st6 {fill:#000000;font-family:Calibri;font-size:0.75em}
		.st7 {marker-end:url(#mrkr4-38);stroke:#5b9bd5;stroke-linecap:round;stroke-linejoin:round;stroke-width:1}
		.st8 {fill:#5b9bd5;fill-opacity:1;stroke:#5b9bd5;stroke-opacity:1;stroke-width:0.28409090909091}
		.st9 {fill:none;fill-rule:evenodd;font-size:12px;overflow:visible;stroke-linecap:square;stroke-miterlimit:3}
	]]>
	</style>

	<defs id="Markers">
		<g id="lend4">
			<path d="M 2 1 L 0 0 L 2 -1 L 2 1 " style="stroke:none"/>
		</g>
		<marker id="mrkr4-38" class="st8" v:arrowType="4" v:arrowSize="2" v:setback="7.04" refX="-7.04" orient="auto"
				markerUnits="strokeWidth" overflow="visible">
			<use xlink:href="#lend4" transform="scale(-3.52,-3.52) "/>
		</marker>
	</defs>
	<defs id="Filters">
		<filter id="filter_2">
			<feGaussianBlur stdDeviation="2"/>
		</filter>
	</defs>
	<g v:mID="0" v:index="1" v:groupContext="foregroundPage">
		<v:userDefs>
			<v:ud v:nameU="msvThemeOrder" v:val="VT0(0):26"/>
		</v:userDefs>
		<title>Zeichenblatt-1</title>
		<v:pageProperties v:drawingScale="0.0393701" v:pageScale="0.0393701" v:drawingUnits="24" v:shadowOffsetX="8.50394"
				v:shadowOffsetY="-8.50394"/>
		<v:layer v:name="Verbinder" v:index="0"/>
		<g id="shape43-1" v:mID="43" v:groupContext="shape" transform="translate(20.7794,-23.0978)">
			<title>Rahmen.17</title>
			<v:userDefs>
				<v:ud v:nameU="visVersion" v:prompt="" v:val="VT0(15):26"/>
			</v:userDefs>
			<g id="shadow43-2" v:groupContext="shadow" v:shadowOffsetX="0.345598" v:shadowOffsetY="-1.97279" v:shadowType="1"
					transform="matrix(1,0,0,1,0.345598,1.97279)" class="st1">
				<path d="M0 205.56 L283.46 205.56 L283.46 42.25 L0 42.25 L0 205.56 ZM8.5 197.05 L274.96 197.05 L274.96 50.75 L8.5
							 50.75 L8.5 197.05 Z" class="st2"/>
			</g>
			<path d="M0 205.56 L283.46 205.56 L283.46 42.25 L0 42.25 L0 205.56 ZM8.5 197.05 L274.96 197.05 L274.96 50.75 L8.5 50.75
						 L8.5 197.05 Z" class="st3"/>
		</g>
		<g id="shape44-6" v:mID="44" v:groupContext="shape" transform="translate(68.1943,-43.2947)">
			<title>Rechteck.19</title>
			<desc>GUI</desc>
			<v:userDefs>
				<v:ud v:nameU="visVersion" v:val="VT0(15):26"/>
			</v:userDefs>
			<v:textBlock v:margins="rect(4,4,4,4)" v:tabSpace="42.5197"/>
			<v:textRect cx="42.3638" cy="183.235" width="84.73" height="44.6457"/>
			<g id="shadow44-7" v:groupContext="shadow" v:shadowOffsetX="0.345598" v:shadowOffsetY="-1.97279" v:shadowType="1"
					transform="matrix(1,0,0,1,0.345598,1.97279)" class="st1">
				<rect x="0" y="160.912" width="84.7276" height="44.6457" class="st2"/>
			</g>
			<rect x="0" y="160.912" width="84.7276" height="44.6457" class="st3"/>
			<text x="34.74" y="186.24" class="st4" v:langID="1031"><v:paragraph v:horizAlign="1"/><v:tabList/>GUI</text>		</g>
		<g id="shape45-12" v:mID="45" v:groupContext="shape" transform="translate(187.031,-120.184)">
			<title>Rechteck.20</title>
			<desc>Model</desc>
			<v:userDefs>
				<v:ud v:nameU="visVersion" v:val="VT0(15):26"/>
			</v:userDefs>
			<v:textBlock v:margins="rect(4,4,4,4)" v:tabSpace="42.5197"/>
			<v:textRect cx="29.863" cy="183.235" width="59.73" height="44.6457"/>
			<g id="shadow45-13" v:groupContext="shadow" v:shadowOffsetX="0.345598" v:shadowOffsetY="-1.97279" v:shadowType="1"
					transform="matrix(1,0,0,1,0.345598,1.97279)" class="st1">
				<rect x="0" y="160.912" width="59.726" height="44.6457" class="st2"/>
			</g>
			<rect x="0" y="160.912" width="59.726" height="44.6457" class="st3"/>
			<text x="16.69" y="186.24" class="st4" v:langID="1031"><v:paragraph v:horizAlign="1"/><v:tabList/>Model</text>		</g>
		<g id="shape46-18" v:mID="46" v:groupContext="shape" transform="translate(68.2597,-101.676)">
			<title>Rechteck.21</title>
			<desc>Netzwerkinterface</desc>
			<v:userDefs>
				<v:ud v:nameU="visVersion" v:val="VT0(15):26"/>
			</v:userDefs>
			<v:textBlock v:margins="rect(4,4,4,4)" v:tabSpace="42.5197"/>
			<v:textRect cx="43.2283" cy="183.235" width="86.46" height="44.6457"/>
			<g id="shadow46-19" v:groupContext="shadow" v:shadowOffsetX="0.345598" v:shadowOffsetY="-1.97279" v:shadowType="1"
					transform="matrix(1,0,0,1,0.345598,1.97279)" class="st1">
				<rect x="0" y="160.912" width="86.4567" height="44.6457" class="st2"/>
			</g>
			<rect x="0" y="160.912" width="86.4567" height="44.6457" class="st3"/>
			<text x="5.58" y="186.24" class="st4" v:langID="1031"><v:paragraph v:horizAlign="1"/><v:tabList/>Netzwerkinterface</text>		</g>
		<g id="shape47-24" v:mID="47" v:groupContext="shape" transform="translate(187.031,-57.4679)">
			<title>Rechteck.26</title>
			<desc>Engine</desc>
			<v:userDefs>
				<v:ud v:nameU="visVersion" v:val="VT0(15):26"/>
			</v:userDefs>
			<v:textBlock v:margins="rect(4,4,4,4)" v:tabSpace="42.5197"/>
			<v:textRect cx="29.863" cy="183.235" width="59.73" height="44.6457"/>
			<g id="shadow47-25" v:groupContext="shadow" v:shadowOffsetX="0.345598" v:shadowOffsetY="-1.97279" v:shadowType="1"
					transform="matrix(1,0,0,1,0.345598,1.97279)" class="st1">
				<rect x="0" y="160.912" width="59.726" height="44.6457" class="st2"/>
			</g>
			<rect x="0" y="160.912" width="59.726" height="44.6457" class="st3"/>
			<text x="16.18" y="186.24" class="st4" v:langID="1031"><v:paragraph v:horizAlign="1"/><v:tabList/>Engine</text>		</g>
		<g id="shape48-30" v:mID="48" v:groupContext="shape" transform="translate(29.2833,-157.661)">
			<title>Tabelle.48</title>
			<desc>Desktop-Beobachter</desc>
			<v:textBlock v:margins="rect(4,4,4,4)" v:tabSpace="42.5197"/>
			<v:textRect cx="66.6142" cy="195.437" width="133.23" height="20.2411"/>
			<rect x="0" y="185.317" width="133.228" height="20.2411" class="st5"/>
			<text x="4" y="198.14" class="st6" v:langID="1031"><v:paragraph/><v:tabList/>Desktop-Beobachter</text>		</g>
		<g id="shape49-33" v:mID="49" v:groupContext="shape" v:layerMember="0" transform="translate(187.031,-79.7907)">
			<title>Dynamischer Verbinder</title>
			<path d="M0 205.56 L-10.63 205.56 L-10.63 161.35 L-25.27 161.35" class="st7"/>
		</g>
		<g id="shape50-39" v:mID="50" v:groupContext="shape" v:layerMember="0" transform="translate(154.716,-123.999)">
			<title>Dynamischer Verbinder.50</title>
			<path d="M0 205.56 L21.69 205.56 L21.69 249.77 L25.27 249.77" class="st7"/>
		</g>
		<g id="shape53-44" v:mID="53" v:groupContext="shape" v:layerMember="0" transform="translate(209.808,-120.184)">
			<title>Dynamischer Verbinder.53</title>
			<path d="M7.09 205.56 L7.09 216.59" class="st7"/>
		</g>
		<g id="shape54-49" v:mID="54" v:groupContext="shape" v:layerMember="0" transform="translate(209.808,-102.114)">
			<title>Dynamischer Verbinder.54</title>
			<path d="M7.09 205.56 L7.09 194.53" class="st7"/>
		</g>
		<g id="shape55-54" v:mID="55" v:groupContext="shape" v:layerMember="0" transform="translate(187.031,-79.7907)">
			<title>Dynamischer Verbinder.55</title>
			<path d="M0 205.56 L-10.63 205.56 L-10.63 219.73 L-27.07 219.73" class="st7"/>
		</g>
	</g>
</svg>
