<?xml version="1.0" encoding="UTF-8" standalone="no"?>
<!DOCTYPE svg PUBLIC "-//W3C//DTD SVG 1.1//EN" "http://www.w3.org/Graphics/SVG/1.1/DTD/svg11.dtd">
<!-- Generiert durch Microsoft Visio, SVG Export MVP.svg Page-1 -->
<svg xmlns="http://www.w3.org/2000/svg" xmlns:xlink="http://www.w3.org/1999/xlink" xmlns:ev="http://www.w3.org/2001/xml-events"
		xmlns:v="http://schemas.microsoft.com/visio/2003/SVGExtensions/" width="8.20134in" height="6.28779in"
		viewBox="0 0 590.496 452.721" xml:space="preserve" color-interpolation-filters="sRGB" class="st25">
	<v:documentProperties v:langID="1031" v:metric="true" v:viewMarkup="false">
		<v:userDefs>
			<v:ud v:nameU="msvNoAutoConnect" v:val="VT0(1):26"/>
		</v:userDefs>
	</v:documentProperties>

	<style type="text/css">
	<![CDATA[
		.st1 {fill:#5b9bd5;stroke:#5b9bd5;stroke-linecap:round;stroke-linejoin:round;stroke-width:0.25}
		.st2 {fill:#000000;font-family:Segoe UI;font-size:1.66667em;font-weight:bold}
		.st3 {fill:#5b9bd5;stroke:none;stroke-linecap:round;stroke-linejoin:round;stroke-width:6.375}
		.st4 {fill:#000000;font-family:Calibri;font-size:1.66667em;font-weight:bold}
		.st5 {fill:#41719c;stroke:none;stroke-linecap:round;stroke-linejoin:round;stroke-width:0.24}
		.st6 {fill:#ffffff;stroke:none;stroke-linecap:butt;stroke-width:7.2}
		.st7 {fill:#000000;font-family:Calibri;font-size:1.5em}
		.st8 {fill:#000000;fill-opacity:0;stroke:none;stroke-linecap:butt;stroke-width:0.75}
		.st9 {fill:url(#grad7-40);stroke:none;stroke-linecap:round;stroke-linejoin:round;stroke-width:0.75}
		.st10 {fill:url(#grad0-44);stroke:none;stroke-linecap:round;stroke-linejoin:round;stroke-width:0.75}
		.st11 {fill:url(#grad10-48);stroke:none;stroke-linecap:round;stroke-linejoin:round;stroke-width:0.75}
		.st12 {fill:url(#grad0-56)}
		.st13 {stroke:none;stroke-linecap:round;stroke-linejoin:round;stroke-width:0.75}
		.st14 {fill:url(#grad3-61)}
		.st15 {stroke:#996633;stroke-linecap:butt;stroke-width:0.375}
		.st16 {fill:none}
		.st17 {stroke:#1e4182;stroke-linecap:round;stroke-linejoin:round;stroke-width:0.375}
		.st18 {fill:none;stroke:#000000;stroke-linecap:round;stroke-linejoin:round;stroke-width:0.72}
		.st19 {fill:#41719c;stroke:#e2ecf5;stroke-linecap:round;stroke-linejoin:round;stroke-width:0.24}
		.st20 {fill:#ffffff;stroke:none;stroke-linecap:butt}
		.st21 {fill:#a4c8e8;stroke:#e2ecf5;stroke-linecap:round;stroke-linejoin:round;stroke-width:0.24}
		.st22 {fill:#3382c8;stroke:#e2ecf5;stroke-linecap:round;stroke-linejoin:round;stroke-width:0.24}
		.st23 {fill:#5b9bd5;stroke:#e2ecf5;stroke-linecap:round;stroke-linejoin:round;stroke-width:0.24}
		.st24 {fill:#ffffff;font-family:Calibri;font-size:1.66667em;font-weight:bold}
		.st25 {fill:none;fill-rule:evenodd;font-size:12px;overflow:visible;stroke-linecap:square;stroke-miterlimit:3}
	]]>
	</style>

	<defs id="Patterns_And_Gradients">
		<radialGradient id="grad7-40" cx="0" cy="0" r="1.4">
			<stop offset="0" stop-color="#dcf1fa" stop-opacity="1"/>
			<stop offset="1" stop-color="#5b9bd5" stop-opacity="1"/>
		</radialGradient>
		<linearGradient id="grad0-44" x1="0" y1="0" x2="1" y2="0" gradientTransform="rotate(0 0.5 0.5)">
			<stop offset="0" stop-color="#f7f3e8" stop-opacity="1"/>
			<stop offset="1" stop-color="#a8dbf0" stop-opacity="1"/>
		</linearGradient>
		<pattern id="grad10-48" x="0" y="0" width="1" height="1" patternContentUnits="objectBoundingBox">
			<path d="M 0.5 0.5 L 0 0 L 0 1 z" style="fill:url(#grad0-49)"/>
			<path d="M 0.5 0.5 L 1 0 L 1 1 z" style="fill:url(#grad0-50)"/>
			<path d="M 0.5 0.5 L 0 0 L 1 0 z" style="fill:url(#grad0-51)"/>
			<path d="M 0.5 0.5 L 0 1 L 1 1 z" style="fill:url(#grad0-52)"/>
		</pattern>
		<linearGradient id="grad0-49" x1="0" y1="0" x2="1" y2="0" gradientTransform="rotate(180 0.5 0.5)">
			<stop offset="0" stop-color="#a8dbf0" stop-opacity="1"/>
			<stop offset="1" stop-color="#5b9bd5" stop-opacity="1"/>
		</linearGradient>
		<linearGradient id="grad0-50" x1="0" y1="0" x2="1" y2="0" gradientTransform="rotate(360 0.5 0.5)">
			<stop offset="0" stop-color="#a8dbf0" stop-opacity="1"/>
			<stop offset="1" stop-color="#5b9bd5" stop-opacity="1"/>
		</linearGradient>
		<linearGradient id="grad0-51" x1="0" y1="0" x2="1" y2="0" gradientTransform="rotate(270 0.5 0.5)">
			<stop offset="0" stop-color="#a8dbf0" stop-opacity="1"/>
			<stop offset="1" stop-color="#5b9bd5" stop-opacity="1"/>
		</linearGradient>
		<linearGradient id="grad0-52" x1="0" y1="0" x2="1" y2="0" gradientTransform="rotate(90 0.5 0.5)">
			<stop offset="0" stop-color="#a8dbf0" stop-opacity="1"/>
			<stop offset="1" stop-color="#5b9bd5" stop-opacity="1"/>
		</linearGradient>
		<linearGradient id="grad0-56" x1="0" y1="0" x2="1" y2="0" gradientTransform="rotate(0 0.5 0.5)">
			<stop offset="0" stop-color="#5b9bd5" stop-opacity="1"/>
			<stop offset="1" stop-color="#4974ba" stop-opacity="1"/>
		</linearGradient>
		<radialGradient id="grad3-61" cx="0.5" cy="0.5" r="0.73">
			<stop offset="0" stop-color="#ffffff" stop-opacity="1"/>
			<stop offset="1" stop-color="#da8c36" stop-opacity="1"/>
		</radialGradient>
	</defs>
	<g v:mID="0" v:index="1" v:groupContext="foregroundPage">
		<title>Zeichenblatt-1</title>
		<v:pageProperties v:drawingScale="0.0393701" v:pageScale="0.0393701" v:drawingUnits="24" v:shadowOffsetX="8.50394"
				v:shadowOffsetY="-8.50394"/>
		<v:layer v:name="Geräte" v:index="0"/>
		<v:layer v:name="Computer" v:index="1"/>
		<v:layer v:name="Allgemeine Symbole" v:index="2"/>
		<v:layer v:name="Container" v:index="3"/>
		<v:layer v:name="Verbinder" v:index="4"/>
		<v:layer v:name="Maschinen" v:index="5"/>
		<g id="group36-1" transform="translate(35.7009,-318.489)" v:mID="36" v:groupContext="group" v:layerMember="2">
			<v:userDefs>
				<v:ud v:nameU="visVersion" v:prompt="" v:val="VT0(17):26"/>
				<v:ud v:nameU="visAltText" v:prompt="" v:val="VT4(Datenbank)"/>
				<v:ud v:nameU="visAltDescription" v:prompt="" v:val="VT4(Datenbank-Symbol.)"/>
				<v:ud v:nameU="Font" v:prompt="" v:val="VT0(243):26"/>
			</v:userDefs>
			<title>Datenbank</title>
			<desc>Model</desc>
			<g id="group37-2" v:mID="37" v:groupContext="group" v:layerMember="2">
				<title>Tabelle.37</title>
				<g id="shape38-3" v:mID="38" v:groupContext="shape" v:layerMember="2" transform="translate(0,-91.6635)">
					<title>Tabelle.38</title>
					<ellipse cx="43.5402" cy="440.499" rx="43.5402" ry="12.2218" class="st1"/>
				</g>
				<g id="shape39-5" v:mID="39" v:groupContext="shape" v:layerMember="2" transform="translate(0,-61.109)">
					<title>Tabelle.39</title>
					<path d="M74.64 440.5 C72.77 440.5 71.53 439.28 71.53 437.44 C71.53 435.61 72.77 434.39 74.64 434.39 C76.51 434.39
								 77.75 435.61 77.75 437.44 C77.75 439.28 76.51 440.5 74.64 440.5 ZM43.54 428.28 C19.59 428.28 0 422.78
								 0 416.06 L0 440.5 C0 447.22 19.59 452.72 43.54 452.72 C67.49 452.72 87.08 447.22 87.08 440.5 L87.08
								 416.06 C87.08 422.78 67.49 428.28 43.54 428.28 Z" class="st1"/>
				</g>
				<g id="shape40-7" v:mID="40" v:groupContext="shape" v:layerMember="2" transform="translate(0,-30.5545)">
					<title>Tabelle.40</title>
					<path d="M74.64 440.5 C72.77 440.5 71.53 439.28 71.53 437.44 C71.53 435.61 72.77 434.39 74.64 434.39 C76.51 434.39
								 77.75 435.61 77.75 437.44 C77.75 439.28 76.51 440.5 74.64 440.5 ZM43.54 428.28 C19.59 428.28 0 422.78
								 0 416.06 L0 440.5 C0 447.22 19.59 452.72 43.54 452.72 C67.49 452.72 87.08 447.22 87.08 440.5 L87.08
								 416.06 C87.08 422.78 67.49 428.28 43.54 428.28 Z" class="st1"/>
				</g>
				<g id="shape41-9" v:mID="41" v:groupContext="shape" v:layerMember="2">
					<title>Tabelle.41</title>
					<path d="M74.64 440.5 C72.77 440.5 71.53 439.28 71.53 437.44 C71.53 435.61 72.77 434.39 74.64 434.39 C76.51 434.39
								 77.75 435.61 77.75 437.44 C77.75 439.28 76.51 440.5 74.64 440.5 ZM43.54 428.28 C19.59 428.28 0 422.78
								 0 416.06 L0 440.5 C0 447.22 19.59 452.72 43.54 452.72 C67.49 452.72 87.08 447.22 87.08 440.5 L87.08
								 416.06 C87.08 422.78 67.49 428.28 43.54 428.28 Z" class="st1"/>
				</g>
			</g>
			<g id="shape36-11" v:mID="36" v:groupContext="groupContent" v:layerMember="2">
				<v:textBlock v:margins="rect(0,0,0,0)" v:tabSpace="42.5197" v:verticalAlign="2"/>
				<v:textRect cx="43.5402" cy="464.723" width="65.78" height="24.0037"/>
				<text x="13.41" y="470.72" class="st2" v:langID="1031"><v:paragraph v:horizAlign="1"/><v:tabList/>Model</text>			</g>
		</g>
		<g id="group42-13" transform="translate(21.1875,-54.8035)" v:mID="42" v:groupContext="group">
			<title>Monitor</title>
			<desc>View</desc>
			<g id="shape43-14" v:mID="43" v:groupContext="shape">
				<title>Tabelle.43</title>
				<path d="M110.3 350.55 C113.49 350.55 116.11 353.25 116.11 356.56 L116.11 428.68 C116.11 431.99 113.49 434.69 110.3
							 434.69 L69.66 434.69 L69.66 443.71 L84.18 443.71 L84.18 452.72 L31.93 452.72 L31.93 443.71 L46.44 443.71
							 L46.44 434.69 L5.81 434.69 C2.61 434.69 0 431.99 0 428.68 L0 356.56 C0 353.25 2.61 350.55 5.81 350.55
							 L110.3 350.55 ZM107.4 425.67 L107.4 359.56 L8.71 359.56 L8.71 425.67 L107.4 425.67 Z" class="st3"/>
			</g>
			<g id="shape42-16" v:mID="42" v:groupContext="groupContent">
				<v:textBlock v:margins="rect(4,4,4,4)" v:tabSpace="42.5197"/>
				<v:textRect cx="58.0535" cy="468.723" width="54.24" height="32.004"/>
				<text x="37.2" y="474.72" class="st4" v:langID="1031"><v:paragraph v:horizAlign="1"/><v:tabList/>View</text>			</g>
		</g>
		<g id="shape47-18" v:mID="47" v:groupContext="shape" transform="translate(155.683,776.166) scale(1,-1)">
			<title>Versandpfeil.47</title>
			<desc>interacts with</desc>
			<v:userDefs>
				<v:ud v:nameU="visVersion" v:val="VT0(15):26"/>
				<v:ud v:nameU="angHead" v:prompt="" v:val="VT0(0.78539816339745):37"/>
				<v:ud v:nameU="bodySize" v:prompt="" v:val="VT0(0.16666666666667):0"/>
				<v:ud v:nameU="headLength" v:prompt="" v:val="VT0(0.25):0"/>
				<v:ud v:nameU="bodySize" v:prompt="" v:val="VT0(0.085301837270341):24"/>
				<v:ud v:nameU="headLength" v:prompt="" v:val="VT0(0.12795275590551):24"/>
			</v:userDefs>
			<v:textBlock v:margins="rect(4,4,4,4)"/>
			<v:textRect cx="70.8661" cy="429.335" width="113.39" height="29.6036"/>
			<path d="M0 443.51 L9.21 434.3 L9.21 440.44 L113.39 440.44 L113.39 446.58 L9.21 446.58 L9.21 452.72 L0 443.51 Z"
					class="st5"/>
			<rect v:rectContext="textBkgnd" x="20.5137" y="418.535" width="100.705" height="21.5999" class="st6"/>
			<text x="20.51" y="-423.94" transform="scale(1,-1)" class="st7" v:langID="1031"><v:paragraph v:horizAlign="1"/><v:tabList/>interacts with</text>		</g>
		<g id="shape48-22" v:mID="48" v:groupContext="shape" transform="translate(533.995,275.964) rotate(90) scale(-1,1)">
			<title>Versandpfeil.48</title>
			<desc>data</desc>
			<v:userDefs>
				<v:ud v:nameU="visVersion" v:val="VT0(15):26"/>
				<v:ud v:nameU="angHead" v:prompt="" v:val="VT0(0.78539816339745):37"/>
				<v:ud v:nameU="bodySize" v:prompt="" v:val="VT0(0.16666666666667):0"/>
				<v:ud v:nameU="headLength" v:prompt="" v:val="VT0(0.25):0"/>
				<v:ud v:nameU="bodySize" v:prompt="" v:val="VT0(0.085301837270341):24"/>
				<v:ud v:nameU="headLength" v:prompt="" v:val="VT0(0.12795275590551):24"/>
			</v:userDefs>
			<v:textBlock v:margins="rect(4,4,4,4)"/>
			<v:textRect cx="56.6929" cy="429.74" width="113.39" height="29.6036" transform="rotate(-180)"/>
			<path d="M0 443.51 L9.21 434.3 L9.21 440.44 L113.39 440.44 L113.39 446.58 L9.21 446.58 L9.21 452.72 L0 443.51 Z"
					class="st5"/>
			<rect v:rectContext="textBkgnd" x="40.3278" y="418.94" width="32.7305" height="21.5999" class="st6"/>
			<text x="40.33" y="-424.34" transform="scale(1,-1)" class="st7" v:langID="1031"><v:paragraph v:horizAlign="1"/><v:tabList/>data</text>		</g>
		<g id="shape49-26" v:mID="49" v:groupContext="shape" transform="translate(155.683,521.048) scale(1,-1)">
			<title>Versandpfeil.49</title>
			<desc>operates on</desc>
			<v:userDefs>
				<v:ud v:nameU="visVersion" v:val="VT0(15):26"/>
				<v:ud v:nameU="angHead" v:prompt="" v:val="VT0(0.78539816339745):37"/>
				<v:ud v:nameU="bodySize" v:prompt="" v:val="VT0(0.16666666666667):0"/>
				<v:ud v:nameU="headLength" v:prompt="" v:val="VT0(0.25):0"/>
				<v:ud v:nameU="bodySize" v:prompt="" v:val="VT0(0.085301837270341):24"/>
				<v:ud v:nameU="headLength" v:prompt="" v:val="VT0(0.12795275590551):24"/>
			</v:userDefs>
			<v:textBlock v:margins="rect(4,4,4,4)"/>
			<v:textRect cx="61.8468" cy="423.949" width="113.39" height="29.6036"/>
			<path d="M0 443.51 L9.21 434.3 L9.21 440.44 L113.39 440.44 L113.39 446.58 L9.21 446.58 L9.21 452.72 L0 443.51 Z"
					class="st5"/>
			<rect v:rectContext="textBkgnd" x="17.9236" y="413.149" width="87.8467" height="21.5999" class="st6"/>
			<text x="17.92" y="-418.55" transform="scale(1,-1)" class="st7" v:langID="1031"><v:paragraph v:horizAlign="1"/><v:tabList/>operates on</text>		</g>
		<g id="shape50-30" v:mID="50" v:groupContext="shape" transform="translate(469.291,617.919) rotate(-45) scale(1,-1)">
			<title>Versandpfeil.50</title>
			<desc>update()</desc>
			<v:userDefs>
				<v:ud v:nameU="visVersion" v:val="VT0(15):26"/>
				<v:ud v:nameU="angHead" v:prompt="" v:val="VT0(0.78539816339745):37"/>
				<v:ud v:nameU="bodySize" v:prompt="" v:val="VT0(0.16666666666667):0"/>
				<v:ud v:nameU="headLength" v:prompt="" v:val="VT0(0.25):0"/>
				<v:ud v:nameU="bodySize" v:prompt="" v:val="VT0(0.085301837270341):24"/>
				<v:ud v:nameU="headLength" v:prompt="" v:val="VT0(0.12795275590551):24"/>
			</v:userDefs>
			<v:textBlock v:margins="rect(4,4,4,4)"/>
			<v:textRect cx="101.863" cy="423.408" width="200.44" height="29.6036"/>
			<path d="M0 443.51 L9.21 434.3 L9.21 440.44 L200.44 440.44 L200.44 446.58 L9.21 446.58 L9.21 452.72 L0 443.51 Z"
					class="st5"/>
			<rect v:rectContext="textBkgnd" x="70.4157" y="412.608" width="62.8945" height="21.5999" class="st6"/>
			<text x="70.42" y="-418.01" transform="scale(1,-1)" class="st7" v:langID="1031"><v:paragraph v:horizAlign="1"/><v:tabList/>update()</text>		</g>
		<g id="group1-34" transform="translate(291.349,-54.8035)" v:mID="1" v:groupContext="group">
			<v:userDefs>
				<v:ud v:nameU="SkinColor" v:prompt="" v:val="VT5(#da8c36)"/>
				<v:ud v:nameU="visVersion" v:prompt="" v:val="VT0(15):26"/>
			</v:userDefs>
			<title>Person - Rumpf</title>
			<desc>Beobachter</desc>
			<g id="shape2-35" v:mID="2" v:groupContext="shape" transform="translate(7.25732,-15.8211)">
				<title>Tabelle.2</title>
				<path d="M5.24 403.11 L4.85 403.29 A7.65885 7.65885 -180 0 0 1.17 409.75 L0.71 418.4 L0.37 424.64 L0 431.56 A6.49665
							 6.49665 -180 0 0 7.07 437.49 A32.2847 32.2847 -180 0 0 20.89 446.16 A290.659 290.659 -180 0 0 32.47
							 449.28 A14.6778 14.6778 -180 0 0 43.42 452.64 A17.7561 14.6246 -180 0 0 51.38 450.18 A8.90301 7.33285
							 -180 0 0 56.31 444.55 A459.953 378.835 -180 0 0 55.42 429.58 A917.756 755.898 -180 0 0 54.89 423.34
							 A42.1438 34.7112 -180 0 0 53.59 415.99 A34.1467 28.1245 -180 0 0 36.31 399.93 L36.28 397.4 A15.6655
							 15.6655 -180 0 0 43.05 384.71 A15.9093 15.9093 -180 0 0 27.26 369.25 A15.6995 15.6995 -180 0 0 11.48
							 384.71 A14.9749 14.9749 -180 0 0 17.95 397.26 L5.57 402.96 L5.24 403.11 Z" class="st8"/>
			</g>
			<g id="shape3-37" v:mID="3" v:groupContext="shape" transform="translate(7.90305,-17.5867)">
				<title>Tabelle.3</title>
				<path d="M0.71 418.4 L1.18 409.75 A12.4179 12.4179 0 0 1 21.95 404.22 A32.3456 32.3456 0 0 1 41.84 442.16 L43.43
							 452.64 A14.6778 14.6778 0 0 1 32.48 449.28 A290.659 290.659 0 0 1 20.89 446.16 A32.2847 32.2847 0 0
							 1 7.07 437.49 A6.49665 6.49665 0 0 1 0 431.56 L0.38 424.64 L0.71 418.4 Z" class="st9"/>
			</g>
			<g id="shape4-41" v:mID="4" v:groupContext="shape" transform="translate(12.7551,-48.2459)">
				<title>Tabelle.4</title>
				<path d="M34.16 452.72 L48.75 446.65 A34.1467 28.1245 -180 0 0 13.15 427.87 L0 433.95 A33.5576 27.6393 0 0 1 34.16
							 452.72 Z" class="st10"/>
			</g>
			<g id="shape5-45" v:mID="5" v:groupContext="shape" transform="translate(46.919,-17.6985)">
				<title>Tabelle.5</title>
				<path d="M0 422.17 A11.884 9.78812 0 0 1 14.58 416.1 A42.1438 34.7112 0 0 1 15.88 423.45 A917.756 755.898 0 0 1 16.4
							 429.7 A459.953 378.835 0 0 1 17.3 444.66 A8.90301 7.33285 0 0 1 12.37 450.29 A16.2366 13.373 0 0 1 2.16
							 452.7 L0 422.17 Z" class="st11"/>
			</g>
			<g id="shape6-53" v:mID="6" v:groupContext="shape" transform="translate(26.6492,-65.9683)">
				<title>Tabelle.6</title>
				<path d="M0.43 445.98 L0.5 449.19 A6.37632 6.37632 -180 0 0 7.9 452.03 A19.3555 19.3555 -180 0 0 17.6 450.93 L17.53
							 444.86 A17.0223 17.0223 0 0 1 0.71 445.85 L0.43 445.98 Z" class="st12"/>
				<path d="M0.43 445.98 L0.5 449.19 A6.37632 6.37632 -180 0 0 7.9 452.03 A19.3555 19.3555 -180 0 0 17.6 450.93 L17.53
							 444.86 A17.0223 17.0223 0 0 1 0.71 445.85" class="st13"/>
			</g>
			<g id="shape7-58" v:mID="7" v:groupContext="shape" transform="translate(19.3898,-70.2748)">
				<title>Tabelle.7</title>
				<path d="M31.57 437.4 A15.3776 15.3776 0 0 1 15.78 452.72 A15.1903 15.1903 0 0 1 0 437.4 A15.6995 15.6995 0 0 1 15.78
							 421.93 A15.9093 15.9093 0 0 1 31.57 437.4 L-7.89 414.24 L31.57 437.4 Z" class="st14"/>
				<path d="M31.57 437.4 A15.3776 15.3776 0 0 1 15.78 452.72 A15.1903 15.1903 0 0 1 0 437.4 A15.6995 15.6995 0 0 1 15.78
							 421.93 A15.9093 15.9093 0 0 1 31.57 437.4" class="st15"/>
			</g>
			<g id="shape8-63" v:mID="8" v:groupContext="shape" transform="translate(15.1891,-21.4465)">
				<title>Tabelle.8</title>
				<path d="M0 440.94 L0 422.02 L0 440.94 ZM25.24 452.72 L25.24 433.8 L25.24 452.72 Z" class="st16"/>
				<path d="M0 440.94 L0 422.02M25.24 452.72 L25.24 433.8" class="st17"/>
			</g>
			<g id="shape9-66" v:mID="9" v:groupContext="shape" transform="translate(7.90027,-17.6075)">
				<title>Tabelle.9</title>
				<path d="M48.65 451.4 A10.0962 10.0962 -180 0 0 56.32 444.57 A421.557 421.557 -180 0 0 54.67 420.92 A25.48 25.48
							 -180 0 0 42.73 403.3 A21.0559 21.0559 -180 0 0 36.42 399.99 L36.29 397.44 A15.6593 15.6593 -180 0 0
							 43.06 384.73 A15.6194 15.6194 -180 0 0 27.27 369.27 A15.6181 15.6181 -180 0 0 11.49 384.73 A15.3312
							 15.3312 -180 0 0 18.01 397.23 L4.85 403.31 A7.6649 7.6649 -180 0 0 1.18 409.77 L0.01 431.58 A4.57982
							 4.57982 -180 0 0 1.18 435.01 A8.489 8.489 -180 0 0 7.07 437.51 A44.9307 44.9307 -180 0 0 32.48 449.3
							 A15.491 15.491 -180 0 0 48.65 451.4 Z" class="st18"/>
			</g>
			<g id="shape1-68" v:mID="1" v:groupContext="groupContent">
				<v:textBlock v:margins="rect(4,4,4,4)" v:tabSpace="42.5197"/>
				<v:textRect cx="47.2441" cy="452.721" width="108.38" height="32.004"/>
				<text x="-0.68" y="458.72" class="st4" v:langID="1031"><v:paragraph v:horizAlign="1"/><v:tabList/>Beobachter</text>			</g>
		</g>
		<g id="shape54-70" v:mID="54" v:groupContext="shape" transform="translate(-30.3655,-179.376) rotate(-45) scale(-1,1)">
			<title>Versandpfeil.54</title>
			<desc>notify()</desc>
			<v:userDefs>
				<v:ud v:nameU="visVersion" v:val="VT0(15):26"/>
				<v:ud v:nameU="angHead" v:prompt="" v:val="VT0(0.78539816339745):37"/>
				<v:ud v:nameU="bodySize" v:prompt="" v:val="VT0(0.16666666666667):0"/>
				<v:ud v:nameU="headLength" v:prompt="" v:val="VT0(0.25):0"/>
				<v:ud v:nameU="bodySize" v:prompt="" v:val="VT0(0.085301837270341):24"/>
				<v:ud v:nameU="headLength" v:prompt="" v:val="VT0(0.12795275590551):24"/>
			</v:userDefs>
			<v:textBlock v:margins="rect(4,4,4,4)"/>
			<v:textRect cx="101.863" cy="424.306" width="200.44" height="29.6036"/>
			<path d="M0 443.51 L9.21 434.3 L9.21 440.44 L200.44 440.44 L200.44 446.58 L9.21 446.58 L9.21 452.72 L0 443.51 Z"
					class="st5"/>
			<rect v:rectContext="textBkgnd" x="75.0296" y="413.507" width="53.666" height="21.5999" class="st6"/>
			<text x="-128.7" y="429.71" transform="scale(-1,1)" class="st7" v:langID="1031"><v:paragraph v:horizAlign="1"/><v:tabList/>notify()</text>		</g>
		<g id="shape55-74" v:mID="55" v:groupContext="shape" transform="translate(-387.038,162.579) rotate(-90) scale(-1,1)">
			<title>Versandpfeil.55</title>
			<desc>queries</desc>
			<v:userDefs>
				<v:ud v:nameU="visVersion" v:val="VT0(15):26"/>
				<v:ud v:nameU="angHead" v:prompt="" v:val="VT0(0.78539816339745):37"/>
				<v:ud v:nameU="bodySize" v:prompt="" v:val="VT0(0.16666666666667):0"/>
				<v:ud v:nameU="headLength" v:prompt="" v:val="VT0(0.25):0"/>
				<v:ud v:nameU="bodySize" v:prompt="" v:val="VT0(0.085301837270341):24"/>
				<v:ud v:nameU="headLength" v:prompt="" v:val="VT0(0.12795275590551):24"/>
			</v:userDefs>
			<v:textBlock v:margins="rect(4,4,4,4)"/>
			<v:textRect cx="56.6929" cy="426.906" width="113.39" height="29.6036"/>
			<path d="M0 443.51 L9.21 434.3 L9.21 440.44 L113.39 440.44 L113.39 446.58 L9.21 446.58 L9.21 452.72 L0 443.51 Z"
					class="st5"/>
			<rect v:rectContext="textBkgnd" x="29.5566" y="416.106" width="54.2725" height="21.5999" class="st6"/>
			<text x="-83.83" y="432.31" transform="scale(-1,1)" class="st7" v:langID="1031"><v:paragraph v:horizAlign="1"/><v:tabList/>queries</text>		</g>
		<g id="shape56-78" v:mID="56" v:groupContext="shape" transform="translate(283.242,-68.3316) scale(-1,1)">
			<title>Versandpfeil.56</title>
			<desc>is presented to</desc>
			<v:userDefs>
				<v:ud v:nameU="visVersion" v:val="VT0(15):26"/>
				<v:ud v:nameU="angHead" v:prompt="" v:val="VT0(0.78539816339745):37"/>
				<v:ud v:nameU="bodySize" v:prompt="" v:val="VT0(0.16666666666667):0"/>
				<v:ud v:nameU="headLength" v:prompt="" v:val="VT0(0.25):0"/>
				<v:ud v:nameU="bodySize" v:prompt="" v:val="VT0(0.085301837270341):24"/>
				<v:ud v:nameU="headLength" v:prompt="" v:val="VT0(0.12795275590551):24"/>
			</v:userDefs>
			<v:textBlock v:margins="rect(4,4,4,4)"/>
			<v:textRect cx="71.9564" cy="462.155" width="127.56" height="29.6036"/>
			<path d="M0 443.51 L9.21 434.3 L9.21 440.44 L127.56 440.44 L127.56 446.58 L9.21 446.58 L9.21 452.72 L0 443.51 Z"
					class="st5"/>
			<rect v:rectContext="textBkgnd" x="17.2489" y="451.356" width="109.415" height="21.5999" class="st6"/>
			<text x="-126.66" y="467.56" transform="scale(-1,1)" class="st7" v:langID="1031"><v:paragraph v:horizAlign="1"/><v:tabList/>is presented to</text>		</g>
		<g id="shape59-82" v:mID="59" v:groupContext="shape" transform="translate(823.179,-35.3485) rotate(50.3558) scale(-1,1)">
			<title>Versandpfeil.59</title>
			<desc>sendMessage()</desc>
			<v:userDefs>
				<v:ud v:nameU="visVersion" v:val="VT0(15):26"/>
				<v:ud v:nameU="angHead" v:prompt="" v:val="VT0(0.78539816339745):37"/>
				<v:ud v:nameU="bodySize" v:prompt="" v:val="VT0(0.16666666666667):0"/>
				<v:ud v:nameU="headLength" v:prompt="" v:val="VT0(0.25):0"/>
				<v:ud v:nameU="bodySize" v:prompt="" v:val="VT0(0.085301837270341):24"/>
				<v:ud v:nameU="headLength" v:prompt="" v:val="VT0(0.12795275590551):24"/>
			</v:userDefs>
			<v:textBlock v:margins="rect(4,4,4,4)"/>
			<v:textRect cx="71.3865" cy="422.09" width="128.85" height="29.6036"/>
			<path d="M0 443.51 L9.21 434.3 L9.21 440.44 L128.84 440.44 L128.84 446.58 L9.21 446.58 L9.21 452.72 L0 443.51 Z"
					class="st19"/>
			<rect v:rectContext="textBkgnd" x="16.2352" y="411.29" width="110.303" height="21.5999" class="st20"/>
			<text x="-126.54" y="427.49" transform="scale(-1,1)" class="st7" v:langID="1031"><v:paragraph v:horizAlign="1"/><v:tabList/>sendMessage()</text>		</g>
		<g id="group64-86" transform="translate(458.99,-100.221)" v:mID="64" v:groupContext="group">
			<v:userDefs>
				<v:ud v:nameU="visVersion" v:prompt="" v:val="VT0(15):26"/>
			</v:userDefs>
			<title>Würfel</title>
			<desc>Interface</desc>
			<g id="shape65-87" v:mID="65" v:groupContext="shape">
				<title>Tabelle.65</title>
				<v:userDefs>
					<v:ud v:nameU="ControlHeight" v:prompt="" v:val="VT0(0.94488188976378):24"/>
					<v:ud v:nameU="FillForegnd" v:prompt="" v:val="VT0(1):26"/>
					<v:ud v:nameU="FillForegnd" v:prompt="" v:val="VT5(#5b9bd5)"/>
				</v:userDefs>
				<path d="M0 384.69 L96.38 384.69 L113.39 367.68 L17.01 367.68 L0 384.69 Z" class="st21"/>
			</g>
			<g id="shape66-89" v:mID="66" v:groupContext="shape">
				<title>Tabelle.66</title>
				<v:userDefs>
					<v:ud v:nameU="ControlHeight" v:prompt="" v:val="VT0(0.94488188976378):24"/>
					<v:ud v:nameU="FillForegnd" v:prompt="" v:val="VT0(1):26"/>
					<v:ud v:nameU="FillForegnd" v:prompt="" v:val="VT5(#5b9bd5)"/>
				</v:userDefs>
				<path d="M96.38 452.72 L113.39 435.71 L113.39 367.68 L96.38 384.69 L96.38 452.72 Z" class="st22"/>
			</g>
			<g id="shape64-91" v:mID="64" v:groupContext="groupContent">
				<v:textBlock v:margins="rect(4,4,4,4)" v:tabSpace="42.5197"/>
				<v:textRect cx="48.189" cy="418.705" width="96.38" height="68.0315"/>
				<rect x="0" y="384.69" width="96.378" height="68.0315" class="st23"/>
				<text x="10.78" y="424.71" class="st24" v:langID="1031"><v:paragraph v:horizAlign="1"/><v:tabList/>Interface</text>			</g>
		</g>
		<g id="shape67-94" v:mID="67" v:groupContext="shape" transform="translate(-12.1645,433.082) rotate(51.953) scale(1,-1)">
			<title>Versandpfeil.67</title>
			<desc>getNextMessage()</desc>
			<v:userDefs>
				<v:ud v:nameU="visVersion" v:val="VT0(15):26"/>
				<v:ud v:nameU="angHead" v:prompt="" v:val="VT0(0.78539816339745):37"/>
				<v:ud v:nameU="bodySize" v:prompt="" v:val="VT0(0.16666666666667):0"/>
				<v:ud v:nameU="headLength" v:prompt="" v:val="VT0(0.25):0"/>
				<v:ud v:nameU="bodySize" v:prompt="" v:val="VT0(0.085301837270341):24"/>
				<v:ud v:nameU="headLength" v:prompt="" v:val="VT0(0.12795275590551):24"/>
			</v:userDefs>
			<v:textBlock v:margins="rect(4,4,4,4)"/>
			<v:textRect cx="88.1789" cy="463.086" width="165.58" height="29.6036"/>
			<path d="M0 443.51 L9.21 434.3 L9.21 440.44 L165.58 440.44 L165.58 446.58 L9.21 446.58 L9.21 452.72 L0 443.51 Z"
					class="st19"/>
			<rect v:rectContext="textBkgnd" x="21.5534" y="452.286" width="133.251" height="21.5999" class="st20"/>
			<text x="21.55" y="-457.69" transform="scale(1,-1)" class="st7" v:langID="1031"><v:paragraph v:horizAlign="1"/><v:tabList/>getNextMessage()</text>		</g>
		<g id="group69-98" transform="translate(291.349,-325.984)" v:mID="69" v:groupContext="group">
			<v:userDefs>
				<v:ud v:nameU="visVersion" v:prompt="" v:val="VT0(15):26"/>
			</v:userDefs>
			<title>Würfel.69</title>
			<desc>Presenter</desc>
			<g id="shape70-99" v:mID="70" v:groupContext="shape">
				<title>Tabelle.70</title>
				<v:userDefs>
					<v:ud v:nameU="ControlHeight" v:prompt="" v:val="VT0(0.94488188976378):24"/>
					<v:ud v:nameU="FillForegnd" v:prompt="" v:val="VT0(1):26"/>
					<v:ud v:nameU="FillForegnd" v:prompt="" v:val="VT5(#5b9bd5)"/>
				</v:userDefs>
				<path d="M0 384.69 L96.38 384.69 L113.39 367.68 L17.01 367.68 L0 384.69 Z" class="st21"/>
			</g>
			<g id="shape71-101" v:mID="71" v:groupContext="shape">
				<title>Tabelle.71</title>
				<v:userDefs>
					<v:ud v:nameU="ControlHeight" v:prompt="" v:val="VT0(0.94488188976378):24"/>
					<v:ud v:nameU="FillForegnd" v:prompt="" v:val="VT0(1):26"/>
					<v:ud v:nameU="FillForegnd" v:prompt="" v:val="VT5(#5b9bd5)"/>
				</v:userDefs>
				<path d="M96.38 452.72 L113.39 435.71 L113.39 367.68 L96.38 384.69 L96.38 452.72 Z" class="st22"/>
			</g>
			<g id="shape69-103" v:mID="69" v:groupContext="groupContent">
				<v:textBlock v:margins="rect(4,4,4,4)" v:tabSpace="42.5197"/>
				<v:textRect cx="48.189" cy="418.705" width="96.38" height="68.0315"/>
				<rect x="0" y="384.69" width="96.378" height="68.0315" class="st23"/>
				<text x="7.83" y="424.71" class="st24" v:langID="1031"><v:paragraph v:horizAlign="1"/><v:tabList/>Presenter</text>			</g>
		</g>
	</g>
</svg>
