<svg version="1.1" xmlns="http://www.w3.org/2000/svg" xmlns:xlink="http://www.w3.org/1999/xlink" width="2668" height="2220"><defs/><g><g/><g/><g/><g/><g/><g/><g/><g/><g/><g/><g/><g/><g/><g/><g/><g/><g/><g/><g/><g/><g/><g/><g/><g/><g/><g/><g/><g/><g/><g/><g/><g/><g/><g/><g><rect fill="white" stroke="none" x="0" y="0" width="2668" height="2220"/></g><g><text fill="black" stroke="none" font-family="sans-serif" font-size="16.5pt" font-style="normal" font-weight="normal" text-decoration="normal" x="1247.8608479047807" y="24.50280495" text-anchor="start" dominant-baseline="alphabetic">Network Interface</text></g><g/><g><path fill="none" stroke="black" paint-order="fill stroke markers" d=" M 68.98361290432813 95.887643371 L 68.98361290432813 2220.280832536" stroke-miterlimit="10" stroke-width="1.3612669416666667" stroke-dasharray="12.565541,5.445067766666667"/><path fill="none" stroke="black" paint-order="fill stroke markers" d=" M 289.3444471173489 175.44008344199997 L 289.3444471173489 2220.280832536" stroke-miterlimit="10" stroke-width="1.3612669416666667" stroke-dasharray="12.565541,5.445067766666667"/><path fill="none" stroke="black" paint-order="fill stroke markers" d=" M 644.9522592010728 409.6868987639999 L 644.9522592010728 2071.6304825060006" stroke-miterlimit="10" stroke-width="1.3612669416666667" stroke-dasharray="12.565541,5.445067766666667"/><path fill="none" stroke="black" paint-order="fill stroke markers" d=" M 1135.06986564925 713.031624045 L 1135.06986564925 1856.0057989460006" stroke-miterlimit="10" stroke-width="1.3612669416666667" stroke-dasharray="12.565541,5.445067766666667"/><path fill="none" stroke="black" paint-order="fill stroke markers" d=" M 2096.8213698970626 846.4902350059999 L 2096.8213698970626 2163.1076209860003" stroke-miterlimit="10" stroke-width="1.3612669416666667" stroke-dasharray="12.565541,5.445067766666667"/><path fill="none" stroke="black" paint-order="fill stroke markers" d=" M 2348.1988047835207 246.82492186299996 L 2348.1988047835207 2220.280832536" stroke-miterlimit="10" stroke-width="1.3612669416666667" stroke-dasharray="12.565541,5.445067766666667"/><path fill="none" stroke="black" paint-order="fill stroke markers" d=" M 2572.6469650463464 95.887643371 L 2572.6469650463464 2220.280832536" stroke-miterlimit="10" stroke-width="1.3612669416666667" stroke-dasharray="12.565541,5.445067766666667"/></g><g><path fill="none" stroke="none"/><g><path fill="white" stroke="black" paint-order="fill stroke markers" d=" M 8.167601649999995 51.782594461 L 129.79962415865626 51.782594461 L 129.79962415865626 95.887643371 L 8.167601649999995 95.887643371 L 8.167601649999995 51.782594461 Z" stroke-miterlimit="10" stroke-width="2.613632528" stroke-dasharray=""/></g><g><g/><text fill="black" stroke="none" font-family="sans-serif" font-size="11pt" font-style="normal" font-weight="normal" text-decoration="normal" x="25.8912972305" y="79.55244007099999" text-anchor="start" dominant-baseline="alphabetic">"SpielServer"</text></g><path fill="none" stroke="none"/><g><path fill="white" stroke="black" paint-order="fill stroke markers" d=" M 2485.3384687456314 51.782594461 L 2659.955461347061 51.782594461 L 2659.955461347061 95.887643371 L 2485.3384687456314 95.887643371 L 2485.3384687456314 51.782594461 Z" stroke-miterlimit="10" stroke-width="2.613632528" stroke-dasharray=""/></g><g><g/><text fill="black" stroke="none" font-family="sans-serif" font-size="11pt" font-style="normal" font-weight="normal" text-decoration="normal" x="2503.0621643261316" y="79.55244007099999" text-anchor="start" dominant-baseline="alphabetic">"DesktopBeobachter"</text></g></g><g><path fill="white" stroke="black" paint-order="fill stroke markers" d=" M 281.1768454673489 338.30206034299994 L 297.5120487673489 338.30206034299994 L 297.5120487673489 455.4254680039999 L 281.1768454673489 455.4254680039999 L 281.1768454673489 338.30206034299994" stroke-miterlimit="10" stroke-width="1.3612669416666667" stroke-dasharray=""/><path fill="white" stroke="black" paint-order="fill stroke markers" d=" M 636.7846575510728 455.4254680039999 L 653.1198608510729 455.4254680039999 L 653.1198608510729 2025.8919132660005 L 636.7846575510728 2025.8919132660005 L 636.7846575510728 455.4254680039999" stroke-miterlimit="10" stroke-width="1.3612669416666667" stroke-dasharray=""/><path fill="white" stroke="black" paint-order="fill stroke markers" d=" M 644.9522592010728 517.4992405439999 L 661.2874625010729 517.4992405439999 L 661.2874625010729 2025.8919132660005 L 644.9522592010728 2025.8919132660005 L 644.9522592010728 517.4992405439999" stroke-miterlimit="10" stroke-width="1.3612669416666667" stroke-dasharray=""/><path fill="white" stroke="black" paint-order="fill stroke markers" d=" M 2088.6537682470625 892.2288042459999 L 2104.9889715470626 892.2288042459999 L 2104.9889715470626 2163.1076209860003 L 2088.6537682470625 2163.1076209860003 L 2088.6537682470625 892.2288042459999" stroke-miterlimit="10" stroke-width="1.3612669416666667" stroke-dasharray=""/><path fill="white" stroke="black" paint-order="fill stroke markers" d=" M 1126.90226399925 1000.0411460259998 L 1143.23746729925 1000.0411460259998 L 1143.23746729925 1856.0057989460006 L 1126.90226399925 1856.0057989460006 L 1126.90226399925 1000.0411460259998" stroke-miterlimit="10" stroke-width="1.3612669416666667" stroke-dasharray=""/><path fill="white" stroke="black" paint-order="fill stroke markers" d=" M 2340.0312031335206 1457.4268384260004 L 2356.3664064335208 1457.4268384260004 L 2356.3664064335208 1503.1654076660004 L 2340.0312031335206 1503.1654076660004 L 2340.0312031335206 1457.4268384260004" stroke-miterlimit="10" stroke-width="1.3612669416666667" stroke-dasharray=""/><path fill="white" stroke="black" paint-order="fill stroke markers" d=" M 653.1198608510728 1548.9039769060005 L 669.4550641510729 1548.9039769060005 L 669.4550641510729 1963.8181407260006 L 653.1198608510728 1963.8181407260006 L 653.1198608510728 1548.9039769060005" stroke-miterlimit="10" stroke-width="1.3612669416666667" stroke-dasharray=""/><path fill="white" stroke="black" paint-order="fill stroke markers" d=" M 281.1768454673489 1594.6425461460005 L 297.5120487673489 1594.6425461460005 L 297.5120487673489 1702.4548879260005 L 281.1768454673489 1702.4548879260005 L 281.1768454673489 1594.6425461460005" stroke-miterlimit="10" stroke-width="1.3612669416666667" stroke-dasharray=""/><path fill="white" stroke="black" paint-order="fill stroke markers" d=" M 1135.06986564925 1594.6425461460005 L 1151.40506894925 1594.6425461460005 L 1151.40506894925 1764.5286604660005 L 1135.06986564925 1764.5286604660005 L 1135.06986564925 1594.6425461460005" stroke-miterlimit="10" stroke-width="1.3612669416666667" stroke-dasharray=""/><path fill="white" stroke="black" paint-order="fill stroke markers" d=" M 2340.0312031335206 2117.3690517460004 L 2356.3664064335208 2117.3690517460004 L 2356.3664064335208 2163.1076209860003 L 2340.0312031335206 2163.1076209860003 L 2340.0312031335206 2117.3690517460004" stroke-miterlimit="10" stroke-width="1.3612669416666667" stroke-dasharray=""/><path fill="none" stroke="none"/><g><path fill="white" stroke="black" paint-order="fill stroke markers" d=" M 223.1490489611653 131.33503453199998 L 355.5398452735325 131.33503453199998 L 355.5398452735325 175.44008344199997 L 223.1490489611653 175.44008344199997 L 223.1490489611653 131.33503453199998 Z" stroke-miterlimit="10" stroke-width="2.613632528" stroke-dasharray=""/></g><g><g/><text fill="black" stroke="none" font-family="sans-serif" font-size="11pt" font-style="normal" font-weight="normal" text-decoration="normal" x="240.87274454166533" y="159.10488014199996" text-anchor="start" dominant-baseline="alphabetic">NetworkServer</text></g><path fill="none" stroke="none"/><g><path fill="white" stroke="black" paint-order="fill stroke markers" d=" M 2311.7349587513604 202.71987295299996 L 2384.6626508156805 202.71987295299996 L 2384.6626508156805 246.82492186299996 L 2311.7349587513604 246.82492186299996 L 2311.7349587513604 202.71987295299996 Z" stroke-miterlimit="10" stroke-width="2.613632528" stroke-dasharray=""/></g><g><g/><text fill="black" stroke="none" font-family="sans-serif" font-size="11pt" font-style="normal" font-weight="normal" text-decoration="normal" x="2329.4586543318605" y="230.48971856299997" text-anchor="start" dominant-baseline="alphabetic">Client</text></g><g><g><rect fill="white" stroke="none" x="2371.6125961801877" y="271.3277268129999" width="177.6205774694922" height="21.23576429"/></g><text fill="black" stroke="none" font-family="sans-serif" font-size="11pt" font-style="normal" font-weight="normal" text-decoration="normal" x="2374.0628766751875" y="286.0294097829999" text-anchor="start" dominant-baseline="alphabetic">Client(short port, String iP)</text></g><g><path fill="none" stroke="black" paint-order="fill stroke markers" d=" M 2572.6469650463464 292.56349110299993 L 2350.921338666854 292.56349110299993" stroke-miterlimit="10" stroke-width="1.3612669416666667" stroke-dasharray=""/><g transform="translate(2348.1988047835207,292.56349110299993) translate(-2348.1988047835207,-292.56349110299993)"><path fill="none" stroke="black" paint-order="fill stroke markers" d=" M 2361.811474200187 285.7571563946666 L 2349.5600717251873 292.56349110299993 L 2361.811474200187 299.36982581133327" stroke-miterlimit="10" stroke-width="1.3612669416666667"/></g></g><g><g><rect fill="white" stroke="none" x="88.31360347599475" y="317.0662960529999" width="173.5332514196875" height="21.23576429"/></g><text fill="black" stroke="none" font-family="sans-serif" font-size="11pt" font-style="normal" font-weight="normal" text-decoration="normal" x="90.76388397099475" y="331.7679790229999" text-anchor="start" dominant-baseline="alphabetic">NetworkServer(short port)</text></g><g><path fill="none" stroke="black" paint-order="fill stroke markers" d=" M 68.98361290432813 338.30206034299994 L 278.4543115840156 338.30206034299994" stroke-miterlimit="10" stroke-width="1.3612669416666667" stroke-dasharray=""/><g transform="translate(281.1768454673489,338.30206034299994) translate(-281.1768454673489,-338.30206034299994)"><path fill="none" stroke="black" paint-order="fill stroke markers" d=" M 267.56417605068225 331.4957256346666 L 279.81557852568227 338.30206034299994 L 267.56417605068225 345.1083950513333" stroke-miterlimit="10" stroke-width="1.3612669416666667"/></g></g><path fill="none" stroke="none"/><g><path fill="white" stroke="black" paint-order="fill stroke markers" d=" M 590.1634467382486 365.5818498539999 L 699.7410716638971 365.5818498539999 L 699.7410716638971 409.6868987639999 L 590.1634467382486 409.6868987639999 L 590.1634467382486 365.5818498539999 Z" stroke-miterlimit="10" stroke-width="2.613632528" stroke-dasharray=""/></g><g><g/><text fill="black" stroke="none" font-family="sans-serif" font-size="11pt" font-style="normal" font-weight="normal" text-decoration="normal" x="607.8871423187486" y="393.35169546399993" text-anchor="start" dominant-baseline="alphabetic">MultiServer</text></g><g><g><rect fill="white" stroke="none" x="316.8420393390155" y="434.1897037139999" width="300.6126276403906" height="21.23576429"/></g><text fill="black" stroke="none" font-family="sans-serif" font-size="11pt" font-style="normal" font-weight="normal" text-decoration="normal" x="319.29231983401553" y="448.8913866839999" text-anchor="start" dominant-baseline="alphabetic">MultiServer(short port, NetworkServer server)</text></g><g><path fill="none" stroke="black" paint-order="fill stroke markers" d=" M 297.5120487673489 455.4254680039999 L 634.0621236677395 455.4254680039999" stroke-miterlimit="10" stroke-width="1.3612669416666667" stroke-dasharray=""/><g transform="translate(636.7846575510728,455.4254680039999) translate(-636.7846575510728,-455.4254680039999)"><path fill="none" stroke="black" paint-order="fill stroke markers" d=" M 623.1719881344061 448.6191332956666 L 635.423390609406 455.4254680039999 L 623.1719881344061 462.23180271233326" stroke-miterlimit="10" stroke-width="1.3612669416666667"/></g></g><g><g><rect fill="white" stroke="none" x="680.6174530727395" y="479.9282729539999" width="35.85257209839844" height="21.23576429"/></g><text fill="black" stroke="none" font-family="sans-serif" font-size="11pt" font-style="normal" font-weight="normal" text-decoration="normal" x="683.0677335677395" y="494.6299559239999" text-anchor="start" dominant-baseline="alphabetic">run()</text></g><g><path fill="none" stroke="black" paint-order="fill stroke markers" d=" M 653.1198608510729 501.1640372439999 L 726.6282757010728 501.1640372439999 L 726.6282757010728 517.4992405439999 L 664.0099963844061 517.4992405439999" stroke-miterlimit="10" stroke-width="1.3612669416666667" stroke-dasharray=""/><g transform="translate(661.2874625010728,517.4992405439999) translate(-661.2874625010728,-517.4992405439999)"><path fill="none" stroke="black" paint-order="fill stroke markers" d=" M 674.9001319177395 510.6929058356666 L 662.6487294427395 517.4992405439999 L 674.9001319177395 524.3055752523333" stroke-miterlimit="10" stroke-width="1.3612669416666667"/></g></g><g><g><rect fill="white" stroke="none" x="680.6174530727395" y="542.002045494" width="76.59703315796875" height="21.23576429"/></g><text fill="black" stroke="none" font-family="sans-serif" font-size="11pt" font-style="normal" font-weight="normal" text-decoration="normal" x="683.0677335677395" y="556.7037284639999" text-anchor="start" dominant-baseline="alphabetic">getNewId()</text></g><g><path fill="none" stroke="black" paint-order="fill stroke markers" d=" M 661.2874625010728 563.237809784 L 726.6282757010728 563.237809784 L 726.6282757010728 579.573013084 L 664.0099963844061 579.573013084" stroke-miterlimit="10" stroke-width="1.3612669416666667" stroke-dasharray=""/><g transform="translate(661.2874625010728,579.573013084) translate(-661.2874625010728,-579.573013084)"><path fill="black" stroke="none" paint-order="stroke fill markers" d=" M 674.9001319177395 572.7666783756666 L 661.2874625010728 579.573013084 L 674.9001319177395 586.3793477923333 Z"/></g></g><g><g><rect fill="white" stroke="none" x="680.6174530727395" y="604.0758180339999" width="32.61708320679688" height="21.23576429"/></g><text fill="black" stroke="none" font-family="sans-serif" font-size="11pt" font-style="normal" font-weight="normal" text-decoration="normal" x="683.0677335677395" y="618.7775010039999" text-anchor="start" dominant-baseline="alphabetic">long</text></g><g><path fill="none" stroke="black" paint-order="fill stroke markers" d=" M 661.2874625010728 625.3115823239999 L 726.6282757010728 625.3115823239999 L 726.6282757010728 641.6467856239999 L 664.0099963844061 641.6467856239999" stroke-miterlimit="10" stroke-width="1.3612669416666667" stroke-dasharray="6.53408132"/><g transform="translate(661.2874625010728,641.6467856239999) translate(-661.2874625010728,-641.6467856239999)"><path fill="none" stroke="black" paint-order="fill stroke markers" d=" M 674.9001319177395 634.8404509156666 L 662.6487294427395 641.6467856239999 L 674.9001319177395 648.4531203323332" stroke-miterlimit="10" stroke-width="1.3612669416666667"/></g></g><path fill="none" stroke="none"/><g><path fill="white" stroke="black" paint-order="fill stroke markers" d=" M 1057.0562912235353 668.9265751349999 L 1213.083440074965 668.9265751349999 L 1213.083440074965 713.031624045 L 1057.0562912235353 713.031624045 L 1057.0562912235353 668.9265751349999 Z" stroke-miterlimit="10" stroke-width="2.613632528" stroke-dasharray=""/></g><g><g/><text fill="black" stroke="none" font-family="sans-serif" font-size="11pt" font-style="normal" font-weight="normal" text-decoration="normal" x="1074.7799868040352" y="696.696420745" text-anchor="start" dominant-baseline="alphabetic">MultiServerThread</text></g><path fill="white" stroke="black" paint-order="fill stroke markers" d=" M 1135.06986564925 756.3199127899999 L 1126.90226399925 756.3199127899999 M 743.0178207358126 737.5344289949999 L 1112.20058102925 737.5344289949999 L 1126.9022639992502 752.2361119649998 L 1126.9022639992502 775.1053965849999 L 743.0178207358126 775.1053965849999 L 743.0178207358126 737.5344289949999 M 1112.20058102925 737.5344289949999 L 1112.20058102925 752.2361119649998 L 1126.9022639992502 752.2361119649998" stroke-miterlimit="10" stroke-width="1.3612669416666667" stroke-dasharray=""/><g><text fill="black" stroke="none" font-family="sans-serif" font-size="11pt" font-style="normal" font-weight="normal" text-decoration="normal" x="765.8871053558125" y="760.4037136149999" text-anchor="start" dominant-baseline="alphabetic">A MultiServerThread is created for every connection</text></g><path fill="none" stroke="none"/><g><path fill="white" stroke="black" paint-order="fill stroke markers" d=" M 2033.4749249879494 802.3851860959999 L 2160.167814806176 802.3851860959999 L 2160.167814806176 846.4902350059999 L 2033.4749249879494 846.4902350059999 L 2033.4749249879494 802.3851860959999 Z" stroke-miterlimit="10" stroke-width="2.613632528" stroke-dasharray=""/></g><g><g/><text fill="black" stroke="none" font-family="sans-serif" font-size="11pt" font-style="normal" font-weight="normal" text-decoration="normal" x="2051.1986205684493" y="830.1550317059999" text-anchor="start" dominant-baseline="alphabetic">NetworkClient</text></g><g><g><rect fill="white" stroke="none" x="2134.938209110722" y="870.9930399559998" width="183.31135810914063" height="21.23576429"/></g><text fill="black" stroke="none" font-family="sans-serif" font-size="11pt" font-style="normal" font-weight="normal" text-decoration="normal" x="2137.3884896057216" y="885.6947229259998" text-anchor="start" dominant-baseline="alphabetic">NetworkClient(port, this, iP)</text></g><g><path fill="none" stroke="black" paint-order="fill stroke markers" d=" M 2348.1988047835207 892.2288042459999 L 2107.711505430396 892.2288042459999" stroke-miterlimit="10" stroke-width="1.3612669416666667" stroke-dasharray=""/><g transform="translate(2104.9889715470626,892.2288042459999) translate(-2104.9889715470626,-892.2288042459999)"><path fill="none" stroke="black" paint-order="fill stroke markers" d=" M 2118.601640963729 885.4224695376665 L 2106.3502384887292 892.2288042459999 L 2118.601640963729 899.0351389543332" stroke-miterlimit="10" stroke-width="1.3612669416666667"/></g></g><g><g><rect fill="white" stroke="none" x="688.7850547227395" y="916.7316091959998" width="418.7872187048437" height="21.23576429"/></g><text fill="black" stroke="none" font-family="sans-serif" font-size="11pt" font-style="normal" font-weight="normal" text-decoration="normal" x="691.2353352177395" y="931.4332921659998" text-anchor="start" dominant-baseline="alphabetic">MultiServerThread(Socket socket,NetworkServer server,long id)</text></g><g><path fill="none" stroke="black" paint-order="fill stroke markers" d=" M 661.2874625010728 937.9673734859998 L 1132.3473317659166 937.9673734859998" stroke-miterlimit="10" stroke-width="1.3612669416666667" stroke-dasharray=""/><g transform="translate(1135.06986564925,937.9673734859998) translate(-1135.06986564925,-937.9673734859998)"><path fill="none" stroke="black" paint-order="fill stroke markers" d=" M 1121.4571962325833 931.1610387776665 L 1133.7085987075834 937.9673734859998 L 1121.4571962325833 944.7737081943332" stroke-miterlimit="10" stroke-width="1.3612669416666667"/></g></g><g><g><rect fill="white" stroke="none" x="1162.5674578709168" y="962.4701784359997" width="35.85257209839844" height="21.23576429"/></g><text fill="black" stroke="none" font-family="sans-serif" font-size="11pt" font-style="normal" font-weight="normal" text-decoration="normal" x="1165.0177383659168" y="977.1718614059997" text-anchor="start" dominant-baseline="alphabetic">run()</text></g><g><path fill="none" stroke="black" paint-order="fill stroke markers" d=" M 1135.06986564925 983.7059427259998 L 1208.57828049925 983.7059427259998 L 1208.57828049925 1000.0411460259998 L 1145.9600011825835 1000.0411460259998" stroke-miterlimit="10" stroke-width="1.3612669416666667" stroke-dasharray=""/><g transform="translate(1143.23746729925,1000.0411460259998) translate(-1143.23746729925,-1000.0411460259998)"><path fill="none" stroke="black" paint-order="fill stroke markers" d=" M 1156.8501367159167 993.2348113176664 L 1144.5987342409167 1000.0411460259998 L 1156.8501367159167 1006.8474807343331" stroke-miterlimit="10" stroke-width="1.3612669416666667"/></g></g><g><g><rect fill="white" stroke="none" x="1584.157484800129" y="1024.543950976" width="63.57626594605469" height="21.23576429"/></g><text fill="black" stroke="none" font-family="sans-serif" font-size="11pt" font-style="normal" font-weight="normal" text-decoration="normal" x="1586.607765295129" y="1039.245633946" text-anchor="start" dominant-baseline="alphabetic">connects</text></g><g><path fill="none" stroke="black" paint-order="fill stroke markers" d=" M 2088.6537682470625 1045.7797152659998 L 1145.9600011825835 1045.7797152659998" stroke-miterlimit="10" stroke-width="1.3612669416666667" stroke-dasharray="6.53408132"/><g transform="translate(1143.23746729925,1045.7797152659998) translate(-1143.23746729925,-1045.7797152659998)"><path fill="black" stroke="none" paint-order="stroke fill markers" d=" M 1156.8501367159167 1038.9733805576666 L 1143.23746729925 1045.7797152659998 L 1156.8501367159167 1052.586049974333 Z"/></g></g><g><g><rect fill="white" stroke="none" x="369.3688414020038" y="1070.282520216" width="195.55902351441406" height="21.23576429"/></g><text fill="black" stroke="none" font-family="sans-serif" font-size="11pt" font-style="normal" font-weight="normal" text-decoration="normal" x="371.8191218970038" y="1084.984203186" text-anchor="start" dominant-baseline="alphabetic">sendMsg(String msg, long id)</text></g><g><path fill="none" stroke="black" paint-order="fill stroke markers" d=" M 289.3444471173489 1091.5182845059999 L 642.2297253177395 1091.5182845059999" stroke-miterlimit="10" stroke-width="1.3612669416666667" stroke-dasharray=""/><g transform="translate(644.9522592010728,1091.5182845059999) translate(-644.9522592010728,-1091.5182845059999)"><path fill="none" stroke="black" paint-order="fill stroke markers" d=" M 631.3395897844061 1084.7119497976666 L 643.5909922594061 1091.5182845059999 L 631.3395897844061 1098.324619214333" stroke-miterlimit="10" stroke-width="1.3612669416666667"/></g></g><g><g><rect fill="white" stroke="none" x="395.0417005938983" y="1116.021089456" width="144.213305130625" height="21.23576429"/></g><text fill="black" stroke="none" font-family="sans-serif" font-size="11pt" font-style="normal" font-weight="normal" text-decoration="normal" x="397.49198108889834" y="1130.7227724260001" text-anchor="start" dominant-baseline="alphabetic">sendMsg(String msg)</text></g><g><path fill="none" stroke="black" paint-order="fill stroke markers" d=" M 289.3444471173489 1137.256853746 L 642.2297253177395 1137.256853746" stroke-miterlimit="10" stroke-width="1.3612669416666667" stroke-dasharray=""/><g transform="translate(644.9522592010728,1137.256853746) translate(-644.9522592010728,-1137.256853746)"><path fill="none" stroke="black" paint-order="fill stroke markers" d=" M 631.3395897844061 1130.4505190376667 L 643.5909922594061 1137.256853746 L 631.3395897844061 1144.0631884543332" stroke-miterlimit="10" stroke-width="1.3612669416666667"/></g></g><g><g><rect fill="white" stroke="none" x="806.0934429236183" y="1161.759658696" width="176.00284065308594" height="21.23576429"/></g><text fill="black" stroke="none" font-family="sans-serif" font-size="11pt" font-style="normal" font-weight="normal" text-decoration="normal" x="808.5437234186184" y="1176.4613416660002" text-anchor="start" dominant-baseline="alphabetic">sendMessage(String msg)</text></g><g><path fill="none" stroke="black" paint-order="fill stroke markers" d=" M 661.2874625010728 1182.995422986 L 1124.1797301159165 1182.995422986" stroke-miterlimit="10" stroke-width="1.3612669416666667" stroke-dasharray=""/><g transform="translate(1126.90226399925,1182.995422986) translate(-1126.90226399925,-1182.995422986)"><path fill="none" stroke="black" paint-order="fill stroke markers" d=" M 1113.2895945825833 1176.1890882776668 L 1125.5409970575834 1182.995422986 L 1113.2895945825833 1189.8017576943332" stroke-miterlimit="10" stroke-width="1.3612669416666667"/></g></g><g><g><rect fill="white" stroke="none" x="1507.1746814554024" y="1207.4982279360001" width="217.54187263550781" height="21.23576429"/></g><text fill="black" stroke="none" font-family="sans-serif" font-size="11pt" font-style="normal" font-weight="normal" text-decoration="normal" x="1509.6249619504024" y="1222.1999109060002" text-anchor="start" dominant-baseline="alphabetic">communicate with NetworkClient</text></g><g><path fill="none" stroke="black" paint-order="fill stroke markers" d=" M 1143.23746729925 1228.733992226 L 2085.9312343637293 1228.733992226" stroke-miterlimit="10" stroke-width="1.3612669416666667" stroke-dasharray="6.53408132"/><g transform="translate(2088.6537682470625,1228.733992226) translate(-2088.6537682470625,-1228.733992226)"><path fill="black" stroke="none" paint-order="stroke fill markers" d=" M 2075.041098830396 1221.9276575176668 L 2088.6537682470625 1228.733992226 L 2075.041098830396 1235.5403269343333 Z"/></g></g><g><g><rect fill="white" stroke="none" x="2128.4027629437296" y="1253.2367971760002" width="196.382250443125" height="21.23576429"/></g><text fill="black" stroke="none" font-family="sans-serif" font-size="11pt" font-style="normal" font-weight="normal" text-decoration="normal" x="2130.8530434387294" y="1267.9384801460003" text-anchor="start" dominant-baseline="alphabetic">addToMsgQueue(String msg)</text></g><g><path fill="none" stroke="black" paint-order="fill stroke markers" d=" M 2104.9889715470626 1274.4725614660001 L 2345.4762709001875 1274.4725614660001" stroke-miterlimit="10" stroke-width="1.3612669416666667" stroke-dasharray=""/><g transform="translate(2348.1988047835207,1274.4725614660001) translate(-2348.1988047835207,-1274.4725614660001)"><path fill="none" stroke="black" paint-order="fill stroke markers" d=" M 2334.5861353668543 1267.666226757667 L 2346.837537841854 1274.4725614660001 L 2334.5861353668543 1281.2788961743333" stroke-miterlimit="10" stroke-width="1.3612669416666667"/></g></g><g><g><rect fill="white" stroke="none" x="2143.893104130253" y="1298.9753664160003" width="165.40156807007813" height="21.23576429"/></g><text fill="black" stroke="none" font-family="sans-serif" font-size="11pt" font-style="normal" font-weight="normal" text-decoration="normal" x="2146.343384625253" y="1313.6770493860004" text-anchor="start" dominant-baseline="alphabetic">sendMsg(Message msg)</text></g><g><path fill="none" stroke="black" paint-order="fill stroke markers" d=" M 2348.1988047835207 1320.2111307060002 L 2107.711505430396 1320.2111307060002" stroke-miterlimit="10" stroke-width="1.3612669416666667" stroke-dasharray=""/><g transform="translate(2104.9889715470626,1320.2111307060002) translate(-2104.9889715470626,-1320.2111307060002)"><path fill="none" stroke="black" paint-order="fill stroke markers" d=" M 2118.601640963729 1313.404795997667 L 2106.3502384887292 1320.2111307060002 L 2118.601640963729 1327.0174654143334" stroke-miterlimit="10" stroke-width="1.3612669416666667"/></g></g><g><g><rect fill="white" stroke="none" x="1492.5075519388008" y="1344.7139356560003" width="246.87613166871094" height="21.23576429"/></g><text fill="black" stroke="none" font-family="sans-serif" font-size="11pt" font-style="normal" font-weight="normal" text-decoration="normal" x="1494.9578324338008" y="1359.4156186260004" text-anchor="start" dominant-baseline="alphabetic">communicate with MultiServerThread</text></g><g><path fill="none" stroke="black" paint-order="fill stroke markers" d=" M 2088.6537682470625 1365.9496999460002 L 1145.9600011825835 1365.9496999460002" stroke-miterlimit="10" stroke-width="1.3612669416666667" stroke-dasharray="6.53408132"/><g transform="translate(1143.23746729925,1365.9496999460002) translate(-1143.23746729925,-1365.9496999460002)"><path fill="black" stroke="none" paint-order="stroke fill markers" d=" M 1156.8501367159167 1359.143365237667 L 1143.23746729925 1365.9496999460002 L 1156.8501367159167 1372.7560346543335 Z"/></g></g><g><g><rect fill="white" stroke="none" x="566.7396949363463" y="1390.4525048960004" width="282.7673212439062" height="21.23576429"/></g><text fill="black" stroke="none" font-family="sans-serif" font-size="11pt" font-style="normal" font-weight="normal" text-decoration="normal" x="569.1899754313463" y="1405.1541878660005" text-anchor="start" dominant-baseline="alphabetic">addToMsgQueue(String msg, long clientId)</text></g><g><path fill="none" stroke="black" paint-order="fill stroke markers" d=" M 1126.90226399925 1411.6882691860003 L 292.06698100068223 1411.6882691860003" stroke-miterlimit="10" stroke-width="1.3612669416666667" stroke-dasharray=""/><g transform="translate(289.3444471173489,1411.6882691860003) translate(-289.3444471173489,-1411.6882691860003)"><path fill="none" stroke="black" paint-order="fill stroke markers" d=" M 302.9571165340156 1404.881934477667 L 290.7057140590156 1411.6882691860003 L 302.9571165340156 1418.4946038943335" stroke-miterlimit="10" stroke-width="1.3612669416666667"/></g></g><g><g><rect fill="white" stroke="none" x="2418.0657283650507" y="1436.1910741360005" width="92.88191474976563" height="21.23576429"/></g><text fill="black" stroke="none" font-family="sans-serif" font-size="11pt" font-style="normal" font-weight="normal" text-decoration="normal" x="2420.5160088600505" y="1450.8927571060005" text-anchor="start" dominant-baseline="alphabetic">getNextMsg()</text></g><g><path fill="none" stroke="black" paint-order="fill stroke markers" d=" M 2572.6469650463464 1457.4268384260004 L 2359.088940316854 1457.4268384260004" stroke-miterlimit="10" stroke-width="1.3612669416666667" stroke-dasharray=""/><g transform="translate(2356.3664064335208,1457.4268384260004) translate(-2356.3664064335208,-1457.4268384260004)"><path fill="black" stroke="none" paint-order="stroke fill markers" d=" M 2369.979075850187 1450.6205037176671 L 2356.3664064335208 1457.4268384260004 L 2369.979075850187 1464.2331731343336 Z"/></g></g><g><g><rect fill="white" stroke="none" x="2432.31411093341" y="1481.9296433760005" width="64.38514961304688" height="21.23576429"/></g><text fill="black" stroke="none" font-family="sans-serif" font-size="11pt" font-style="normal" font-weight="normal" text-decoration="normal" x="2434.76439142841" y="1496.6313263460006" text-anchor="start" dominant-baseline="alphabetic">Message</text></g><g><path fill="none" stroke="black" paint-order="fill stroke markers" d=" M 2356.3664064335208 1503.1654076660004 L 2569.924431163013 1503.1654076660004" stroke-miterlimit="10" stroke-width="1.3612669416666667" stroke-dasharray="6.53408132"/><g transform="translate(2572.6469650463464,1503.1654076660004) translate(-2572.6469650463464,-1503.1654076660004)"><path fill="none" stroke="black" paint-order="fill stroke markers" d=" M 2559.03429562968 1496.3590729576672 L 2571.28569810468 1503.1654076660004 L 2559.03429562968 1509.9717423743336" stroke-miterlimit="10" stroke-width="1.3612669416666667"/></g></g><g><g><rect fill="white" stroke="none" x="412.1570031889179" y="1527.6682126160006" width="118.15030159058594" height="21.23576429"/></g><text fill="black" stroke="none" font-family="sans-serif" font-size="11pt" font-style="normal" font-weight="normal" text-decoration="normal" x="414.6072836839179" y="1542.3698955860007" text-anchor="start" dominant-baseline="alphabetic">kick(long clientId)</text></g><g><path fill="none" stroke="black" paint-order="fill stroke markers" d=" M 289.3444471173489 1548.9039769060005 L 650.3973269677396 1548.9039769060005" stroke-miterlimit="10" stroke-width="1.3612669416666667" stroke-dasharray=""/><g transform="translate(653.1198608510729,1548.9039769060005) translate(-653.1198608510729,-1548.9039769060005)"><path fill="black" stroke="none" paint-order="stroke fill markers" d=" M 639.5071914344062 1542.0976421976673 L 653.1198608510729 1548.9039769060005 L 639.5071914344062 1555.7103116143337 Z"/></g></g><g><g><rect fill="white" stroke="none" x="128.6392718109557" y="1573.4067818560006" width="92.88191474976563" height="21.23576429"/></g><text fill="black" stroke="none" font-family="sans-serif" font-size="11pt" font-style="normal" font-weight="normal" text-decoration="normal" x="131.0895523059557" y="1588.1084648260007" text-anchor="start" dominant-baseline="alphabetic">getNextMsg()</text></g><g><path fill="none" stroke="black" paint-order="fill stroke markers" d=" M 68.98361290432813 1594.6425461460005 L 278.4543115840156 1594.6425461460005" stroke-miterlimit="10" stroke-width="1.3612669416666667" stroke-dasharray=""/><g transform="translate(281.1768454673489,1594.6425461460005) translate(-281.1768454673489,-1594.6425461460005)"><path fill="black" stroke="none" paint-order="stroke fill markers" d=" M 267.56417605068225 1587.8362114376673 L 281.1768454673489 1594.6425461460005 L 267.56417605068225 1601.4488808543338 Z"/></g></g><g><g><rect fill="white" stroke="none" x="1170.7350595209168" y="1619.1453510960005" width="92.08018745484375" height="21.23576429"/></g><text fill="black" stroke="none" font-family="sans-serif" font-size="11pt" font-style="normal" font-weight="normal" text-decoration="normal" x="1173.1853400159168" y="1633.8470340660006" text-anchor="start" dominant-baseline="alphabetic">getIsClosed()</text></g><g><path fill="none" stroke="black" paint-order="fill stroke markers" d=" M 1151.40506894925 1640.3811153860004 L 1216.74588214925 1640.3811153860004 L 1216.74588214925 1656.7163186860005 L 1154.1276028325835 1656.7163186860005" stroke-miterlimit="10" stroke-width="1.3612669416666667" stroke-dasharray=""/><g transform="translate(1151.40506894925,1656.7163186860005) translate(-1151.40506894925,-1656.7163186860005)"><path fill="black" stroke="none" paint-order="stroke fill markers" d=" M 1165.0177383659168 1649.9099839776673 L 1151.40506894925 1656.7163186860005 L 1165.0177383659168 1663.5226533943337 Z"/></g></g><g><g><rect fill="white" stroke="none" x="103.37442500919788" y="1681.2191236360006" width="143.41160835328125" height="21.23576429"/></g><text fill="black" stroke="none" font-family="sans-serif" font-size="11pt" font-style="normal" font-weight="normal" text-decoration="normal" x="105.82470550419788" y="1695.9208066060007" text-anchor="start" dominant-baseline="alphabetic">MessageWithClientId</text></g><g><path fill="none" stroke="black" paint-order="fill stroke markers" d=" M 281.1768454673489 1702.4548879260005 L 71.70614678766145 1702.4548879260005" stroke-miterlimit="10" stroke-width="1.3612669416666667" stroke-dasharray="6.53408132"/><g transform="translate(68.98361290432813,1702.4548879260005) translate(-68.98361290432813,-1702.4548879260005)"><path fill="none" stroke="black" paint-order="fill stroke markers" d=" M 82.5962823209948 1695.6485532176673 L 70.3448798459948 1702.4548879260005 L 82.5962823209948 1709.2612226343338" stroke-miterlimit="10" stroke-width="1.3612669416666667"/></g></g><g><g><rect fill="white" stroke="none" x="1170.7350595209168" y="1726.9576928760005" width="96.98355354371094" height="21.23576429"/></g><text fill="black" stroke="none" font-family="sans-serif" font-size="11pt" font-style="normal" font-weight="normal" text-decoration="normal" x="1173.1853400159168" y="1741.6593758460006" text-anchor="start" dominant-baseline="alphabetic">Closed.closed</text></g><g><path fill="none" stroke="black" paint-order="fill stroke markers" d=" M 1151.40506894925 1748.1934571660004 L 1216.74588214925 1748.1934571660004 L 1216.74588214925 1764.5286604660005 L 1154.1276028325835 1764.5286604660005" stroke-miterlimit="10" stroke-width="1.3612669416666667" stroke-dasharray="6.53408132"/><g transform="translate(1151.40506894925,1764.5286604660005) translate(-1151.40506894925,-1764.5286604660005)"><path fill="none" stroke="black" paint-order="fill stroke markers" d=" M 1165.0177383659168 1757.7223257576672 L 1152.7663358909167 1764.5286604660005 L 1165.0177383659168 1771.3349951743337" stroke-miterlimit="10" stroke-width="1.3612669416666667"/></g></g><g><g><rect fill="white" stroke="none" x="1574.7874133889961" y="1789.0314654160006" width="82.31640876832031" height="21.23576429"/></g><text fill="black" stroke="none" font-family="sans-serif" font-size="11pt" font-style="normal" font-weight="normal" text-decoration="normal" x="1577.2376938839961" y="1803.7331483860007" text-anchor="start" dominant-baseline="alphabetic">disconnects</text></g><g><path fill="none" stroke="black" paint-order="fill stroke markers" d=" M 1143.23746729925 1810.2672297060005 L 2085.9312343637293 1810.2672297060005" stroke-miterlimit="10" stroke-width="1.3612669416666667" stroke-dasharray="6.53408132"/><g transform="translate(2088.6537682470625,1810.2672297060005) translate(-2088.6537682470625,-1810.2672297060005)"><path fill="black" stroke="none" paint-order="stroke fill markers" d=" M 2075.041098830396 1803.4608949976673 L 2088.6537682470625 1810.2672297060005 L 2075.041098830396 1817.0735644143338 Z"/></g></g><g><g><rect fill="white" stroke="none" x="776.3619437608254" y="1834.7700346560007" width="243.63344062867188" height="21.23576429"/></g><text fill="black" stroke="none" font-family="sans-serif" font-size="11pt" font-style="normal" font-weight="normal" text-decoration="normal" x="778.8122242558254" y="1849.4717176260008" text-anchor="start" dominant-baseline="alphabetic">setIsClosed(Closed.closed isClosed)</text></g><g><path fill="none" stroke="black" paint-order="fill stroke markers" d=" M 669.4550641510729 1856.0057989460006 L 1124.1797301159165 1856.0057989460006" stroke-miterlimit="10" stroke-width="1.3612669416666667" stroke-dasharray=""/><g transform="translate(1126.90226399925,1856.0057989460006) translate(-1126.90226399925,-1856.0057989460006)"><path fill="black" stroke="none" paint-order="stroke fill markers" d=" M 1113.2895945825833 1849.1994642376674 L 1126.90226399925 1856.0057989460006 L 1113.2895945825833 1862.8121336543338 Z"/></g></g><g><path fill="none" stroke="black" paint-order="fill stroke markers" d=" M 1120.36818267925 1841.3041159760005 L 1149.77154861925 1870.7074819160007 M 1149.77154861925 1841.3041159760005 L 1120.36818267925 1870.7074819160007" stroke-miterlimit="10" stroke-width="2.613632528" stroke-dasharray=""/></g><path fill="white" stroke="black" paint-order="fill stroke markers" d=" M 2088.6537682470625 1899.2940876910006 L 2080.4861665970625 1899.2940876910006 M 1159.5726705992502 1880.5086038960005 L 2065.7844836270624 1880.5086038960005 L 2080.4861665970625 1895.2102868660006 L 2080.4861665970625 1918.0795714860005 L 1159.5726705992502 1918.0795714860005 L 1159.5726705992502 1880.5086038960005 M 2065.7844836270624 1880.5086038960005 L 2065.7844836270624 1895.2102868660006 L 2080.4861665970625 1895.2102868660006" stroke-miterlimit="10" stroke-width="1.3612669416666667" stroke-dasharray=""/><g><text fill="black" stroke="none" font-family="sans-serif" font-size="11pt" font-style="normal" font-weight="normal" text-decoration="normal" x="1182.44195521925" y="1903.3778885160007" text-anchor="start" dominant-baseline="alphabetic">Disconnects either because the MultiServerThread closes the connection or because the disconnect method of NetworkClient is called.</text></g><g><g><rect fill="white" stroke="none" x="442.69383790571476" y="1942.5823764360007" width="57.07663215699219" height="21.23576429"/></g><text fill="black" stroke="none" font-family="sans-serif" font-size="11pt" font-style="normal" font-weight="normal" text-decoration="normal" x="445.1441184007148" y="1957.2840594060008" text-anchor="start" dominant-baseline="alphabetic">boolean</text></g><g><path fill="none" stroke="black" paint-order="fill stroke markers" d=" M 653.1198608510729 1963.8181407260006 L 292.06698100068223 1963.8181407260006" stroke-miterlimit="10" stroke-width="1.3612669416666667" stroke-dasharray="6.53408132"/><g transform="translate(289.3444471173489,1963.8181407260006) translate(-289.3444471173489,-1963.8181407260006)"><path fill="none" stroke="black" paint-order="fill stroke markers" d=" M 302.9571165340156 1957.0118060176674 L 290.7057140590156 1963.8181407260006 L 302.9571165340156 1970.6244754343338" stroke-miterlimit="10" stroke-width="1.3612669416666667"/></g></g><g><g><rect fill="white" stroke="none" x="680.6174530727395" y="1988.3209456760005" width="59.50325264039063" height="21.23576429"/></g><text fill="black" stroke="none" font-family="sans-serif" font-size="11pt" font-style="normal" font-weight="normal" text-decoration="normal" x="683.0677335677395" y="2003.0226286460006" text-anchor="start" dominant-baseline="alphabetic">update()</text></g><g><path fill="none" stroke="black" paint-order="fill stroke markers" d=" M 661.2874625010728 2009.5567099660004 L 726.6282757010728 2009.5567099660004 L 726.6282757010728 2025.8919132660005 L 664.0099963844061 2025.8919132660005" stroke-miterlimit="10" stroke-width="1.3612669416666667" stroke-dasharray=""/><g transform="translate(661.2874625010728,2025.8919132660005) translate(-661.2874625010728,-2025.8919132660005)"><path fill="none" stroke="black" paint-order="fill stroke markers" d=" M 674.9001319177395 2019.0855785576673 L 662.6487294427395 2025.8919132660005 L 674.9001319177395 2032.6982479743338" stroke-miterlimit="10" stroke-width="1.3612669416666667"/></g></g><g><g><rect fill="white" stroke="none" x="428.4382460040546" y="2050.3947182160005" width="77.4202143103125" height="21.23576429"/></g><text fill="black" stroke="none" font-family="sans-serif" font-size="11pt" font-style="normal" font-weight="normal" text-decoration="normal" x="430.8885264990546" y="2065.0964011860005" text-anchor="start" dominant-baseline="alphabetic">shutdown()</text></g><g><path fill="none" stroke="black" paint-order="fill stroke markers" d=" M 289.3444471173489 2071.6304825060006 L 642.2297253177395 2071.6304825060006" stroke-miterlimit="10" stroke-width="1.3612669416666667" stroke-dasharray=""/><g transform="translate(644.9522592010728,2071.6304825060006) translate(-644.9522592010728,-2071.6304825060006)"><path fill="none" stroke="black" paint-order="fill stroke markers" d=" M 631.3395897844061 2064.824147797667 L 643.5909922594061 2071.6304825060006 L 631.3395897844061 2078.436817214334" stroke-miterlimit="10" stroke-width="1.3612669416666667"/></g></g><g><path fill="none" stroke="black" paint-order="fill stroke markers" d=" M 630.2505762310728 2056.9287995360005 L 659.6539421710728 2086.3321654760007 M 659.6539421710728 2056.9287995360005 L 630.2505762310728 2086.3321654760007" stroke-miterlimit="10" stroke-width="2.613632528" stroke-dasharray=""/></g><g><g><rect fill="white" stroke="none" x="2422.131592928039" y="2096.1332874560003" width="84.75018562378906" height="21.23576429"/></g><text fill="black" stroke="none" font-family="sans-serif" font-size="11pt" font-style="normal" font-weight="normal" text-decoration="normal" x="2424.581873423039" y="2110.8349704260004" text-anchor="start" dominant-baseline="alphabetic">disconnect()</text></g><g><path fill="none" stroke="black" paint-order="fill stroke markers" d=" M 2572.6469650463464 2117.3690517460004 L 2359.088940316854 2117.3690517460004" stroke-miterlimit="10" stroke-width="1.3612669416666667" stroke-dasharray=""/><g transform="translate(2356.3664064335208,2117.3690517460004) translate(-2356.3664064335208,-2117.3690517460004)"><path fill="none" stroke="black" paint-order="fill stroke markers" d=" M 2369.979075850187 2110.562717037667 L 2357.7276733751874 2117.3690517460004 L 2369.979075850187 2124.175386454334" stroke-miterlimit="10" stroke-width="1.3612669416666667"/></g></g><g><g><rect fill="white" stroke="none" x="2180.1349945283973" y="2141.871856696" width="84.75018562378906" height="21.23576429"/></g><text fill="black" stroke="none" font-family="sans-serif" font-size="11pt" font-style="normal" font-weight="normal" text-decoration="normal" x="2182.585275023397" y="2156.573539666" text-anchor="start" dominant-baseline="alphabetic">disconnect()</text></g><g><path fill="none" stroke="black" paint-order="fill stroke markers" d=" M 2340.0312031335206 2163.1076209860003 L 2107.711505430396 2163.1076209860003" stroke-miterlimit="10" stroke-width="1.3612669416666667" stroke-dasharray=""/><g transform="translate(2104.9889715470626,2163.1076209860003) translate(-2104.9889715470626,-2163.1076209860003)"><path fill="none" stroke="black" paint-order="fill stroke markers" d=" M 2118.601640963729 2156.301286277667 L 2106.3502384887292 2163.1076209860003 L 2118.601640963729 2169.9139556943337" stroke-miterlimit="10" stroke-width="1.3612669416666667"/></g></g><g><path fill="none" stroke="black" paint-order="fill stroke markers" d=" M 2082.1196869270625 2148.405938016 L 2111.5230528670627 2177.8093039560003 M 2111.5230528670627 2148.405938016 L 2082.1196869270625 2177.8093039560003" stroke-miterlimit="10" stroke-width="2.613632528" stroke-dasharray=""/></g></g><g/><g/></g></svg>